<?xml version="1.0" standalone="no"?><!DOCTYPE svg PUBLIC "-//W3C//DTD SVG 1.1//EN" "http://www.w3.org/Graphics/SVG/1.1/DTD/svg11.dtd"><svg t="1530791535771" class="icon" style="" viewBox="0 0 1024 1024" version="1.1" xmlns="http://www.w3.org/2000/svg" p-id="5724" xmlns:xlink="http://www.w3.org/1999/xlink" width="128" height="128"><defs><style type="text/css"></style></defs><path d="M784.818037 464.149179l0.688685 0.415462L521.206174 34.767851 256.923022 464.565664l0.734734-0.480954c-43.695175 56.418964-69.969585 127.013789-69.969585 203.88762 0 184.197162 149.322887 333.522096 333.518003 333.522096 184.213535 0 333.535399-149.324934 333.535399-333.522096C854.741573 591.113849 828.483536 520.535397 784.818037 464.149179zM521.206174 923.30667c-141.011594 0-255.334339-114.322745-255.334339-255.335363 0-70.080102 28.256554-133.515876 73.966619-179.657776l-0.063445 0 161.005974-248.52526 20.424168-33.035394 35.81674 63.209624 135.324058 208.890564c51.588959 46.715975 84.209914 114.016777 84.209914 189.118242C776.556886 808.983925 662.235165 923.30667 521.206174 923.30667z" p-id="5725" ></path><path d="M480.100988 640.306224c10.867512-12.145621 16.302291-27.966958 16.302291-47.468105 0-19.61064-4.924149-34.890648-14.784728-45.868677-9.860579-10.980076-23.573905-16.461927-41.154305-16.461927-18.331507 0-32.891108 5.960759-43.710524 17.900695-10.82044 11.93789-16.22145 28.0171-16.22145 48.267307 0 18.651802 5.113461 33.611515 15.343453 44.909839 10.227945 11.298324 23.861454 16.940834 40.914852 16.940834C454.799742 658.526191 469.231429 652.453892 480.100988 640.306224zM414.093645 626.88147c-5.960759-7.465019-8.949836-18.059308-8.949836-31.804357 0-13.954827 3.067872-24.853038 9.188266-32.685423 6.121418-7.830339 14.464433-11.744485 25.012673-11.744485 10.339486 0 18.34788 3.755534 24.052812 11.266601 5.705955 7.511067 8.549723 18.140149 8.549723 31.884175 0 14.06432-2.907213 24.963555-8.710382 32.683377-5.8001 7.720845-14.031575 11.587919-24.691355 11.587919C428.207084 638.069277 420.054403 634.346489 414.093645 626.88147z" p-id="5726" ></path><path d="M588.61954 657.088446c-18.219967 0-32.729425 6.0416-43.550888 18.140149-10.819416 12.099572-16.223496 28.256554-16.223496 48.504714 0 18.331507 5.082762 33.211403 15.263635 44.671409 10.181897 11.45796 23.847128 17.180288 40.995693 17.180288 17.691941 0 32.012088-6.0416 42.993187-18.140149 10.980076-12.099572 16.46295-27.841092 16.46295-47.227628 0-20.024056-4.954849-35.561937-14.863523-46.588061S606.0884 657.088446 588.61954 657.088446zM611.394243 753.301741c-5.8001 7.782244-14.031575 11.665691-24.691355 11.665691-10.339486 0-18.492166-3.755534-24.452925-11.266601-5.960759-7.511067-8.949836-17.97949-8.949836-31.404244 0-13.954827 2.989077-24.853038 8.949836-32.683377 5.959735-7.832386 14.382569-11.747555 25.252127-11.747555 10.116405 0 18.092054 3.675716 23.892153 11.028171 5.803169 7.351432 8.710382 17.947767 8.710382 31.804357C620.103602 734.649939 617.197412 745.518474 611.394243 753.301741z" p-id="5727" fill="#000000"></path><path d="M577.592392 534.184255 418.567539 783.347035 445.260481 783.347035 604.283288 534.184255Z" p-id="5728" ></path></svg>
