<?xml version="1.0" standalone="no"?><!DOCTYPE svg PUBLIC "-//W3C//DTD SVG 1.1//EN" "http://www.w3.org/Graphics/SVG/1.1/DTD/svg11.dtd"><svg t="1530778669024" class="icon" style="" viewBox="0 0 1024 1024" version="1.1" xmlns="http://www.w3.org/2000/svg" p-id="1571" xmlns:xlink="http://www.w3.org/1999/xlink" width="64" height="64"><defs><style type="text/css"></style></defs><path d="M929.343665 451.947276 589.515956 98.156554c-21.10876-21.951965-49.346895-34.054607-79.586616-34.054607-30.241768 0-58.478879 12.103666-79.611176 34.054607L90.491479 451.947276c-35.069727 36.516682-30.54876 68.086701-24.752754 81.262792 4.133134 9.367345 18.080797 35.07996 58.262962 35.07996l49.813522 0 0 272.16568c0 61.772902 44.3593 119.966279 107.415428 119.966279l57.157791 0 87.513146 0L425.901575 896.460232 425.901575 672.393014c0-30.887474-4.690836-48.097438 26.870997-48.097438l57.157791 0 57.157791 0c31.53932 0 26.869974 17.209964 26.869974 48.097438L593.958128 896.460232l0 63.961754 87.48961 0 57.157791 0c63.078641 0 107.437941-58.193377 107.437941-119.966279L846.043471 568.290027l49.802266 0c40.191374 0 54.128805-25.712615 58.272171-35.07996C959.900611 520.033977 964.410322 488.463957 929.343665 451.947276z" p-id="1572"></path></svg>