<?xml version="1.0" standalone="no"?><!DOCTYPE svg PUBLIC "-//W3C//DTD SVG 1.1//EN" "http://www.w3.org/Graphics/SVG/1.1/DTD/svg11.dtd"><svg t="1530779529221" class="icon" style="" viewBox="0 0 1024 1024" version="1.1" xmlns="http://www.w3.org/2000/svg" p-id="10768" xmlns:xlink="http://www.w3.org/1999/xlink" width="64" height="64"><defs><style type="text/css"></style></defs><path d="M467.3472 390.4l33.0944-69.504a12.8 12.8 0 0 1 23.1168 0L556.6464 390.4H819.2a32 32 0 0 1 32 32v384a32 32 0 0 1-32 32H204.8a32 32 0 0 1-32-32V422.4a32 32 0 0 1 32-32h262.5472zM364.8 684.8c38.88 0 70.4-31.52 70.4-70.4s-31.52-70.4-70.4-70.4-70.4 31.52-70.4 70.4 31.52 70.4 70.4 70.4z m246.4-140.8a22.4 22.4 0 0 0-22.4 22.4v96a22.4 22.4 0 0 0 44.8 0v-96a22.4 22.4 0 0 0-22.4-22.4z m89.6 0a22.4 22.4 0 0 0-22.4 22.4v96a22.4 22.4 0 0 0 44.8 0v-96a22.4 22.4 0 0 0-22.4-22.4zM380.3968 283.936a32 32 0 0 1-31.1872-55.8784c101.12-56.4416 212.224-56.4416 330.0096-1.0112a32 32 0 1 1-27.2512 57.9008c-99.808-46.9696-189.2288-46.9696-271.5712-1.0112z" fill="#5C646F" p-id="10769"></path></svg>