<?xml version="1.0" standalone="no"?><!DOCTYPE svg PUBLIC "-//W3C//DTD SVG 1.1//EN" "http://www.w3.org/Graphics/SVG/1.1/DTD/svg11.dtd"><svg t="1530791356513" class="icon" style="" viewBox="0 0 1024 1024" version="1.1" xmlns="http://www.w3.org/2000/svg" p-id="2703" xmlns:xlink="http://www.w3.org/1999/xlink" width="128" height="128"><defs><style type="text/css"></style></defs><path d="M692.029187 551.06339V179.1972c0-98.54246-83.1987-179.1972-184.701114-179.1972S322.626959 80.65474 322.626959 179.1972v380.17006c-53.77516 49.023234-87.67863 118.39815-87.67863 195.83694 0 148.429681 124.046062 268.7958 277.051671 268.7958s277.051671-120.35012 277.051671-268.7958c0-81.790722-37.79141-154.87758-97.022484-204.14081zM512 969.168857c-121.710098 0-220.684552-95.9985-220.684552-214.092655 0-59.487071 24.815612-114.926204 69.886908-155.885564l17.791722-16.127748v-403.993688c0-68.686927 57.5991-124.510055 128.333995-124.510054s128.333995 55.839128 128.333995 124.510054v397.065796l19.727692 16.383744c49.103233 40.815362 77.294792 100.046437 77.294792 162.55746 0 118.078155-98.974454 214.092655-220.684552 214.092655z m106.638334-335.066765l-39.359385-32.767488V179.069202c0-37.807409-32.991485-69.822909-71.998875-69.822909s-71.998875 31.9995-71.998875 69.822909v21.295667h46.895267v33.391479H435.361197v53.935157h46.895268v33.391478H435.361197v53.935157h46.895268v33.391479H435.361197V462.392775h46.895268v33.391478H435.361197v110.894268l-35.583444 32.383494c-33.599475 30.623522-52.095186 71.822878-52.095186 116.062186 0 87.998625 73.59885 159.405509 164.317433 159.405509s164.317433-71.582882 164.317433-159.405509c0-46.559273-21.055671-90.654584-57.679099-121.022109zM512 878.06628c-69.886908 0-126.766019-55.199138-126.766019-122.990078 0-34.031468 14.287777-65.90297 40.255371-89.470602l47.407259-43.199325v-66.686958h68.798925v62.399025l52.47918 43.599319c28.319558 23.567632 44.543304 57.5991 44.543304 93.374541 0.047999 67.774941-56.831112 122.974079-126.71802 122.974078z"  p-id="2704"></path></svg>
